<svg xmlns="http://www.w3.org/2000/svg" xmlns:xlink="http://www.w3.org/1999/xlink" fill="none" version="1.1" width="280" height="32" viewBox="0 0 280 32"><path d="M28.354429,0L28.354429,3.5555577L17.721518,3.5555577L17.721518,0L28.354429,0ZM14.177215,3.5555577L17.721518,3.5555577L17.721518,7.1111112L14.177215,7.1111112L14.177215,3.5555577ZM28.354429,3.5555577L31.898733,3.5555577L31.898733,7.1111112L28.354429,7.1111112L28.354429,3.5555577ZM14.177215,10.666667L31.898733,10.666667L31.898733,14.222222L14.177215,14.222222L14.177215,10.666667ZM14.177215,7.1111112L14.177215,10.666667L7.0886073,10.666667L7.0886073,17.777777L10.632912,17.777777L10.632912,21.333334L7.0886073,21.333334L7.0886073,32L0,32L0,28.444445L3.5443037,28.444445L3.5443037,24.888889L0,24.888889L0,21.333334L3.5443037,21.333334L3.5443037,10.666667L0,10.666667L0,7.1111112L3.5443037,7.1111112L3.5443037,0L7.0886073,0L7.0886073,7.1111112L14.177215,7.1111112ZM28.354429,21.333334L17.721518,21.333334L17.721518,28.444445L28.354429,28.444445L28.354429,21.333334ZM14.177215,17.777777L31.898733,17.777777L31.898733,32L14.177215,32L14.177215,17.777777ZM53.164555,17.777777L56.708858,17.777777L56.708858,24.888889L53.164555,24.888889L53.164555,17.777777ZM49.620247,7.1111112L49.620247,0L53.164555,0L53.164555,3.5555577L67.341766,3.5555577L67.341766,28.444445L63.797466,28.444445L63.797466,7.1111112L60.253159,7.1111112L60.253159,17.777777L56.708858,17.777777L56.708858,7.1111112L53.164555,7.1111112L53.164555,17.777777L49.620247,17.777777L49.620247,10.666667L46.075947,10.666667L46.075947,17.777777L49.620247,17.777777L49.620247,21.333334L46.075947,21.333334L46.075947,32L42.531643,32L42.531643,24.888889L35.443035,24.888889L35.443035,21.333334L42.531643,21.333334L42.531643,10.666667L38.987339,10.666667L38.987339,17.777777L35.443035,17.777777L35.443035,0L38.987339,0L38.987339,7.1111112L42.531643,7.1111112L42.531643,0L46.075947,0L46.075947,7.1111112L49.620247,7.1111112ZM49.620247,24.888889L53.164555,24.888889L53.164555,32L49.620247,32L49.620247,24.888889ZM63.797466,32L56.708858,32L56.708858,28.444445L63.797466,28.444445L63.797466,32ZM77.974678,7.1111112L70.88607,7.1111112L70.88607,3.5555577L74.430382,3.5555577L74.430382,0L77.974678,0L77.974678,3.5555577L81.518982,3.5555577L81.518982,10.666667L77.974678,10.666667L77.974678,7.1111112ZM81.518982,17.777777L85.063286,17.777777L85.063286,21.333334L81.518982,21.333334L81.518982,17.777777ZM74.430382,10.666667L77.974678,10.666667L77.974678,14.222222L81.518982,14.222222L81.518982,17.777777L77.974678,17.777777L77.974678,32L74.430382,32L74.430382,21.333334L70.88607,21.333334L70.88607,17.777777L74.430382,17.777777L74.430382,10.666667ZM92.151894,28.444445L92.151894,14.222222L85.063286,14.222222L85.063286,10.666667L92.151894,10.666667L92.151894,0L95.696205,0L95.696205,10.666667L102.78481,10.666667L102.78481,14.222222L95.696205,14.222222L95.696205,28.444445L102.78481,28.444445L102.78481,32L81.518982,32L81.518982,28.444445L92.151894,28.444445ZM120.50632,14.222222L127.59493,14.222222L127.59493,21.333334L120.50632,21.333334L120.50632,14.222222ZM141.77214,7.1111112L145.31645,7.1111112L145.31645,10.666667L141.77214,10.666667L141.77214,7.1111112ZM155.94936,3.5555577L155.94936,7.1111112L152.40504,7.1111112L152.40504,10.666667L148.86076,10.666667L148.86076,7.1111112L145.31645,7.1111112L145.31645,0L148.86076,0L148.86076,3.5555577L155.94936,3.5555577ZM166.58228,7.1111112L159.49367,7.1111112L159.49367,0L163.03796,0L163.03796,3.5555577L173.67087,3.5555577L173.67087,7.1111112L170.12657,7.1111112L170.12657,10.666667L166.58228,10.666667L166.58228,7.1111112ZM163.03796,28.444445L163.03796,24.888889L152.40504,24.888889L152.40504,28.444445L163.03796,28.444445ZM152.40504,21.333334L159.49367,21.333334L159.49367,17.777777L152.40504,17.777777L152.40504,21.333334ZM170.12657,17.777777L163.03796,17.777777L163.03796,21.333334L166.58228,21.333334L166.58228,32L148.86076,32L148.86076,17.777777L145.31645,17.777777L145.31645,24.888889L141.77214,24.888889L141.77214,14.222222L155.94936,14.222222L155.94936,7.1111112L159.49367,7.1111112L159.49367,14.222222L173.67087,14.222222L173.67087,24.888889L170.12657,24.888889L170.12657,17.777777ZM187.84808,3.5555577L187.84808,7.1111112L184.30379,7.1111112L184.30379,14.222222L187.84808,14.222222L187.84808,17.777777L184.30379,17.777777L184.30379,21.333334L187.84808,21.333334L187.84808,24.888889L184.30379,24.888889L184.30379,28.444445L177.21518,28.444445L177.21518,24.888889L180.75949,24.888889L180.75949,17.777777L177.21518,17.777777L177.21518,14.222222L180.75949,14.222222L180.75949,7.1111112L177.21518,7.1111112L177.21518,3.5555577L187.84808,3.5555577ZM202.02531,14.222222L205.56961,14.222222L205.56961,10.666667L202.02531,10.666667L202.02531,14.222222ZM194.93669,10.666667L194.93669,14.222222L198.48099,14.222222L198.48099,10.666667L194.93669,10.666667ZM202.02531,7.1111112L205.56961,7.1111112L205.56961,3.5555577L202.02531,3.5555577L202.02531,7.1111112ZM194.93669,3.5555577L194.93669,7.1111112L198.48099,7.1111112L198.48099,3.5555577L194.93669,3.5555577ZM191.39241,0L209.11392,0L209.11392,17.777777L202.02531,17.777777L202.02531,21.333334L209.11392,21.333334L209.11392,24.888889L202.02531,24.888889L202.02531,28.444445L209.11392,28.444445L209.11392,32L187.84808,32L187.84808,28.444445L198.48099,28.444445L198.48099,24.888889L191.39241,24.888889L191.39241,21.333334L198.48099,21.333334L198.48099,17.777777L191.39241,17.777777L191.39241,0ZM241.01263,0L241.01263,3.5555577L230.37973,3.5555577L230.37973,0L241.01263,0ZM244.55696,10.666667L244.55696,14.222222L219.74683,14.222222L219.74683,28.444445L216.20251,28.444445L216.20251,3.5555577L230.37973,3.5555577L230.37973,7.1111112L219.74683,7.1111112L219.74683,10.666667L244.55696,10.666667ZM212.65822,28.444445L216.20251,28.444445L216.20251,32L212.65822,32L212.65822,28.444445ZM244.55696,32L223.29112,32L223.29112,17.777777L244.55696,17.777777L244.55696,32ZM241.01263,21.333334L226.83543,21.333334L226.83543,28.444445L241.01263,28.444445L241.01263,21.333334ZM258.73416,0L262.27847,0L262.27847,3.5555577L258.73416,3.5555577L258.73416,0ZM255.18987,3.5555577L258.73416,3.5555577L258.73416,7.1111112L255.18987,7.1111112L255.18987,3.5555577ZM272.91138,3.5555577L276.45569,3.5555577L276.45569,10.666667L280,10.666667L280,14.222222L248.10126,14.222222L248.10126,10.666667L251.64555,10.666667L251.64555,7.1111112L255.18987,7.1111112L255.18987,10.666667L272.91138,10.666667L272.91138,3.5555577ZM255.18987,21.333334L255.18987,28.444445L272.91138,28.444445L272.91138,21.333334L255.18987,21.333334ZM276.45569,17.777777L276.45569,32L251.64555,32L251.64555,17.777777L276.45569,17.777777Z" fill="#FFFFFF" fill-opacity="1"/></svg>